# xmcd
#
# Track frame offsets: 
#        150
#        20950
#        42775
#
# Disc length: 846 seconds
#
# Revision: 3
# Processed by: cddbd v1.5.2PL0 Copyright (c) Steve Scherf et al.
# Submitted via: ExactAudioCopy v1.0b3
#
DISCID=20034c03
DTITLE=Nate Dogg - These Days
DYEAR=1997
DGENRE=West Coast G-Funk
TTITLE0=Daz Dillinger/Fuskee/Nate Dogg - These Days (Radio Version)
TTITLE1=Daz Dillinger/Fuskee/Nate Dogg - These Days (LP Version)
TTITLE2=These Days (Instrumental Version)
EXTD=YEAR: 2010
EXTT0=
EXTT1=
EXTT2=
PLAYORDER=
